<svg width="18" height="18" viewBox="0 0 18 18" fill="none" xmlns="http://www.w3.org/2000/svg">
<path d="M14.6982 1.5H8.85263C8.67508 1.50072 8.50136 1.43545 8.35353 1.3125L7.31109 0.441099C6.9659 0.152543 6.55979 -0.00101088 6.14453 5.00834e-06H3.29881C2.74207 0.000749489 2.2083 0.27755 1.81462 0.769672C1.42095 1.26179 1.19952 1.92904 1.19892 2.625V3.75H16.7981C16.7981 2.3025 15.8561 1.5 14.6982 1.5Z" fill="white"/>
<path d="M15.2888 18H2.70822C2.15723 17.9992 1.62856 17.7278 1.23622 17.2441C0.843883 16.7605 0.619319 16.1035 0.610956 15.4148L0.00573906 7.69266V7.67953C-0.01408 7.37003 0.0175609 7.05874 0.0986709 6.76526C0.179781 6.47179 0.308604 6.20248 0.477034 5.97427C0.645465 5.74607 0.849856 5.56391 1.07735 5.43926C1.30484 5.31462 1.55051 5.25018 1.79889 5.25H16.2019C16.4502 5.25031 16.6958 5.31484 16.9232 5.43954C17.1506 5.56425 17.3549 5.74642 17.5232 5.97461C17.6916 6.20281 17.8203 6.47207 17.9014 6.76549C17.9825 7.0589 18.0141 7.3701 17.9943 7.67953V7.69266L17.386 15.4148C17.3777 16.1035 17.1531 16.7605 16.7608 17.2441C16.3684 17.7278 15.8398 17.9992 15.2888 18Z" fill="white"/>
</svg>
